# xmcd
#
# Track frame offsets: 
#        150
#        22310
#        46329
#        63363
#        84231
#        103733
#        124744
#        143588
#        163062
#        179753
#        202254
#        220924
#        241838
#        260656
#        280071
#        297762
#
# Disc length: 4238 seconds
#
# Revision: 0
# Processed by: cddbd v1.5.2PL0 Copyright (c) Steve Scherf et al.
# Submitted via: ExactAudioCopy v1.0b1
#
DISCID=f6108c10
DTITLE=Claude Dubois - Best of
DYEAR=2009
DGENRE=Pop
TTITLE0=Le blues du businessman
TTITLE1=Plein de tendresse
TTITLE2=Tu peux pas
TTITLE3=Pas question d'aventure
TTITLE4=Comme un voyou
TTITLE5=Si Dieu existe
TTITLE6=On vit de femmes
TTITLE7=Dérrière mes yeux
TTITLE8=Chasse-galerie
TTITLE9=Les petits cailloux
TTITLE10=L'espace qui lui reste
TTITLE11=Femme de société
TTITLE12=Persiste
TTITLE13=maison sur le planéte
TTITLE14=Chanter
TTITLE15=L'immigré
EXTD=
EXTT0=
EXTT1=
EXTT2=
EXTT3=
EXTT4=
EXTT5=
EXTT6=
EXTT7=
EXTT8=
EXTT9=
EXTT10=
EXTT11=
EXTT12=
EXTT13=
EXTT14=
EXTT15=
PLAYORDER=
